{
  "accessors": [
    {
      "bufferView": 0,
      "componentType": 5126,
      "count": 1573,
      "max": [
        1.1315902471542358,
        1.413266658782959,
        1.026424527168274
      ],
      "min": [
        -1.523999810218811,
        -1.4132782220840454,
        -1.0264034271240234
      ],
      "name": "Torus Knot01/POSITION",
      "type": "VEC3"
    },
    {
      "bufferView": 0,
      "byteOffset": 12,
      "componentType": 5126,
      "count": 1573,
      "name": "Torus Knot01/NORMAL",
      "type": "VEC3"
    },
    {
      "bufferView": 0,
      "byteOffset": 24,
      "componentType": 5126,
      "count": 1573,
      "name": "Torus Knot01/TEXCOORD_0",
      "type": "VEC2"
    },
    {
      "bufferView": 1,
      "componentType": 5123,
      "count": 8640,
      "name": "Torus Knot01/INDICES",
      "type": "SCALAR"
    }
  ],
  "asset": {
    "copyright": "Copyright (c) 2018-2020 Chukong Technologies Inc.",
    "generator": "FBX-glTF-conv",
    "version": "2.0"
  },
  "bufferViews": [
    {
      "buffer": 0,
      "byteLength": 50336,
      "byteStride": 32,
      "name": "Torus Knot01",
      "target": 34962
    },
    {
      "buffer": 0,
      "byteLength": 17280,
      "byteOffset": 50336,
      "target": 34963
    }
  ],
  "buffers": [
    {
      "byteLength": 67616,
      "uri": "new.bin"
    }
  ],
  "extras": {
    "FBX-glTF-conv": {
      "animationFrameRate": 30.0
    }
  },
  "meshes": [
    {
      "name": "Torus Knot01",
      "primitives": [
        {
          "attributes": {
            "NORMAL": 1,
            "POSITION": 0,
            "TEXCOORD_0": 2
          },
          "indices": 3
        }
      ]
    }
  ],
  "nodes": [
    {
      "mesh": 0,
      "name": "Torus Knot01",
      "rotation": [
        -0.7071067690849304,
        -0.0,
        0.0,
        0.7071067690849304
      ]
    }
  ],
  "scenes": [
    {
      "nodes": [
        0
      ]
    }
  ]
}